<svg id="visual" viewBox="0 0 400 600" width="400" height="600" xmlns="http://www.w3.org/2000/svg" xmlns:xlink="http://www.w3.org/1999/xlink" version="1.1"><rect x="0" y="0" width="400" height="600" fill="#ffffff"></rect><g fill="#c3fffc"><circle r="18" cx="368" cy="304"></circle><circle r="8" cx="137" cy="556"></circle><circle r="13" cx="369" cy="561"></circle><circle r="13" cx="170" cy="493"></circle><circle r="7" cx="349" cy="497"></circle><circle r="13" cx="365" cy="126"></circle><circle r="7" cx="104" cy="85"></circle><circle r="10" cx="364" cy="457"></circle><circle r="9" cx="198" cy="51"></circle><circle r="16" cx="73" cy="360"></circle><circle r="7" cx="52" cy="136"></circle><circle r="15" cx="3" cy="401"></circle><circle r="8" cx="121" cy="292"></circle><circle r="8" cx="42" cy="69"></circle><circle r="13" cx="291" cy="414"></circle><circle r="12" cx="153" cy="447"></circle><circle r="7" cx="397" cy="379"></circle><circle r="16" cx="306" cy="114"></circle><circle r="10" cx="285" cy="536"></circle><circle r="10" cx="235" cy="250"></circle><circle r="7" cx="157" cy="96"></circle><circle r="9" cx="346" cy="178"></circle><circle r="7" cx="118" cy="195"></circle><circle r="10" cx="380" cy="78"></circle><circle r="16" cx="40" cy="582"></circle></g></svg>