<svg id="visual" viewBox="0 0 400 600" width="400" height="600" xmlns="http://www.w3.org/2000/svg" xmlns:xlink="http://www.w3.org/1999/xlink" version="1.1"><path d="M359 600L371 545L319 491L327 436L367 382L315 327L331 273L323 218L323 164L323 109L339 55L355 0L400 0L400 55L400 109L400 164L400 218L400 273L400 327L400 382L400 436L400 491L400 545L400 600Z" fill="#d4fdf8"></path><path d="M307 600L271 545L251 491L287 436L259 382L255 327L267 273L287 218L271 164L259 109L263 55L315 0L356 0L340 55L324 109L324 164L324 218L332 273L316 327L368 382L328 436L320 491L372 545L360 600Z" fill="#dffef9"></path><path d="M191 600L195 545L167 491L139 436L107 382L91 327L95 273L123 218L143 164L123 109L175 55L135 0L316 0L264 55L260 109L272 164L288 218L268 273L256 327L260 382L288 436L252 491L272 545L308 600Z" fill="#eafefb"></path><path d="M159 600L147 545L119 491L107 436L75 382L67 327L71 273L55 218L87 164L95 109L139 55L91 0L136 0L176 55L124 109L144 164L124 218L96 273L92 327L108 382L140 436L168 491L196 545L192 600Z" fill="#f5fffd"></path><path d="M0 600L0 545L0 491L0 436L0 382L0 327L0 273L0 218L0 164L0 109L0 55L0 0L92 0L140 55L96 109L88 164L56 218L72 273L68 327L76 382L108 436L120 491L148 545L160 600Z" fill="#ffffff"></path></svg>